<svg width="30" height="31" viewBox="0 0 30 31" fill="none" xmlns="http://www.w3.org/2000/svg">
<path d="M18.3626 12.8414C17.8976 14.7016 15.0022 13.7565 14.102 13.5014L14.9271 10.231C15.8573 10.501 18.8427 10.8911 18.3626 12.8414ZM13.697 15.1817L12.7968 18.7972C13.907 19.0822 17.3425 20.1774 17.8526 18.1371C18.3926 16.0068 14.8071 15.4517 13.697 15.1817ZM29.5542 18.6322C27.544 26.6733 19.4128 31.564 11.3716 29.5538C3.33048 27.5435 -1.55572 19.4123 0.450067 11.3711C2.46036 3.32999 10.5915 -1.55471 18.6327 0.449575C26.6588 2.45986 31.5495 10.591 29.5542 18.6322ZM18.3176 9.07581L18.9927 6.37543L17.3425 6.00037L16.6824 8.59574C16.2473 8.49073 15.8123 8.38571 15.3622 8.2957L16.0223 5.64032L14.3871 5.25026L13.712 7.93565C13.3519 7.84564 12.9919 7.77063 12.6618 7.68061L10.3965 7.11053L9.94643 8.86578C9.94643 8.86578 11.1766 9.15082 11.1466 9.16583C11.8217 9.33085 11.9417 9.75091 11.9117 10.126L10.0664 17.522C9.99144 17.7321 9.7514 18.0021 9.31634 17.9271C9.33134 17.9421 8.11617 17.627 8.11617 17.627L7.30605 19.5023L9.43636 20.0424C9.84141 20.1474 10.2315 20.2524 10.6215 20.3424L9.93143 23.0728L11.5817 23.4929L12.2568 20.7775C12.7068 20.8975 13.1419 21.0025 13.5619 21.1225L12.8869 23.8079L14.5371 24.228L15.2272 21.4976C18.0026 22.0227 20.1329 21.8126 21.003 19.2773C21.7531 17.252 21.003 16.0518 19.5028 15.2867C20.583 15.0017 21.3931 14.3266 21.6181 12.8564C21.9181 10.8611 20.3879 9.79592 18.3176 9.07581Z" fill="#9D9D9D"/>
</svg>
