<svg width="30" height="30" viewBox="0 0 30 30" fill="none" xmlns="http://www.w3.org/2000/svg">
<circle cx="15" cy="15" r="15" fill="#9D9D9D"/>
<path d="M16 8.5C17.58 8.5 19 9 20.2 10.08L22 8.3C20.3 6.77 18.3 6 16 6C14.05 6 12.3 6.56 10.76 7.69C9.22 8.82 8.13 10.25 7.5 12H3L4 14H7.03C7 14.2 7 14.53 7 15C7 15.47 7 15.8 7.03 16H3L4 18H7.5C8.13 19.75 9.21 21.19 10.76 22.31C12.31 23.43 14.05 24 16 24C16.92 24 18 23.77 19.17 23.32C20.34 22.87 21.3 22.33 22 21.7L20.2 19.92C19 21 17.58 21.5 16 21.5C14.89 21.5 13.78 21.17 12.66 20.5C11.54 19.83 10.72 18.97 10.22 18H16.97L16 16H9.56C9.5 15.55 9.47 15.22 9.47 15C9.47 14.78 9.5 14.45 9.56 14H16.97L16 12H10.22C10.72 11.03 11.53 10.2 12.66 9.5C13.79 8.8 14.89 8.5 16 8.5Z" fill="#35393A"/>
</svg>
