<svg width="37" height="40" viewBox="0 0 37 40" fill="none" xmlns="http://www.w3.org/2000/svg">
<path d="M14.0881 30V24H0V16H14.0881V10L24.1509 20L14.0881 30ZM14.0881 0H32.2013C33.2688 0 34.2926 0.421427 35.0475 1.17157C35.8023 1.92172 36.2264 2.93913 36.2264 4V36C36.2264 37.0609 35.8023 38.0783 35.0475 38.8284C34.2926 39.5786 33.2688 40 32.2013 40H14.0881C13.0205 40 11.9967 39.5786 11.2418 38.8284C10.487 38.0783 10.0629 37.0609 10.0629 36V32H14.0881V36H32.2013V4H14.0881V8H10.0629V4C10.0629 2.93913 10.487 1.92172 11.2418 1.17157C11.9967 0.421427 13.0205 0 14.0881 0Z" fill="#C1C1C1"/>
</svg>
