<svg width="30" height="30" viewBox="0 0 30 30" fill="none" xmlns="http://www.w3.org/2000/svg">
<path d="M15 0C23.2839 0 30 6.7161 30 15C30 23.2839 23.2836 30 15 30C6.7164 30 0 23.2857 0 15C0 6.7143 6.7152 0 15 0Z" fill="#9D9D9D"/>
<path d="M16.8533 13.0014V10.77H21.956V7.37012H8.06114V10.77H13.1645V12.9996C9.01695 13.1901 5.89844 14.0115 5.89844 14.9955C5.89844 15.9795 9.01845 16.8009 13.1645 16.9926V24.1402H16.8545V16.992C20.9945 16.8009 24.1067 15.9801 24.1067 14.997C24.1067 14.0139 20.9945 13.1931 16.8545 13.002L16.8533 13.0014ZM16.8545 16.3866V16.3848C16.7504 16.3914 16.2155 16.4235 15.0245 16.4235C14.0723 16.4235 13.4024 16.3965 13.1663 16.3842V16.3872C9.50205 16.2249 6.76694 15.5868 6.76694 14.8233C6.76694 14.0598 9.50235 13.4226 13.1663 13.26V15.7515C13.4063 15.768 14.0927 15.8085 15.0401 15.8085C16.178 15.8085 16.7501 15.7611 16.8551 15.7515V13.26C20.5121 13.4229 23.2409 14.0616 23.2409 14.8224C23.2409 15.5832 20.5109 16.2222 16.8551 16.3851" fill="#35393A"/>
</svg>
